<?xml version="1.0" encoding="UTF-8"?>
<svg width="591px" height="280px" viewBox="0 0 591 280" version="1.1" xmlns="http://www.w3.org/2000/svg" xmlns:xlink="http://www.w3.org/1999/xlink">
    <!-- Generator: Sketch 48.2 (47327) - http://www.bohemiancoding.com/sketch -->
    <title>Group 5</title>
    <desc>Created with Sketch.</desc>
    <defs></defs>
    <g id="Empty-Worksheet-&amp;-Components" stroke="none" stroke-width="1" fill="none" fill-rule="evenodd">
        <g id="Group-6" transform="translate(-114.000000, -64.000000)" stroke="#E07063" stroke-width="8.5">
            <g id="Group-5" transform="translate(119.000000, 64.000000)">
                <path d="M355,141.5 C355,169.387535 332.392994,192 304.496483,192 C276.607006,192 254,169.387535 254,141.5 C254,113.612465 276.607006,91 304.496483,91 C332.392994,91 355,113.612465 355,141.5 Z" id="Stroke-1"></path>
                <path d="M254.5,143 L254.5,0" id="Stroke-3"></path>
                <path d="M391,0 L391,198" id="Stroke-5"></path>
                <path d="M128,145 L229,141" id="Stroke-7"></path>
                <path d="M222.985495,167.231922 C212.088967,192.902533 182.443714,204.884156 156.764841,193.984121 C134.30392,184.450026 122.322775,160.560235 126.983205,137.537656 C127.645028,134.250313 128.651408,130.979332 130.014505,127.768078 C140.911033,102.097467 170.556286,90.1158439 196.228685,101.013131 C214.733531,108.867972 226.123765,126.463035 226.959758,145.285792" id="Stroke-9"></path>
                <path d="M581,141.5 C581,169.387535 558.392994,192 530.496483,192 C506.095828,192 485.732642,174.690738 481.026952,151.677368 C480.351696,148.392758 480,144.988579 480,141.5 C480,113.612465 502.607006,91 530.496483,91 C550.599415,91 567.95912,102.745822 576.083293,119.745613 C579.234487,126.335933 581,133.713997 581,141.5 Z" id="Stroke-13"></path>
                <path d="M101,147.5 C101,175.387535 78.3929939,198 50.496483,198 C26.0958284,198 5.73264155,180.690738 1.02695174,157.677368 C0.351695801,154.392758 0,150.988579 0,147.5 C0,146.944359 0.00703391601,146.395752 0.028135664,145.840111 C0.900341249,118.71922 23.1626854,97 50.496483,97 C70.599415,97 87.9591197,108.745822 96.0832927,125.745613 C99.2344871,132.335933 101,139.713997 101,147.5 Z" id="Stroke-15"></path>
                <polyline id="Stroke-17" points="0.168 149 0 152.017661 1.2 279"></polyline>
                <path d="M440,97 L440,198" id="Stroke-19"></path>
            </g>
        </g>
    </g>
</svg>